<svg width="181" height="48" viewBox="0 0 181 48" fill="none" xmlns="http://www.w3.org/2000/svg">
<g clip-path="url(#clip0_2_22)">
<path d="M0.350212 47.4462V44.8136C0.350212 43.0415 0.503964 41.3972 0.820009 39.8893C1.12751 38.3813 1.64002 36.8222 2.35753 35.2034C3.06649 33.5847 4.02317 31.7444 5.21048 29.6656L9.58386 22.0234C9.97678 21.3504 10.2928 20.6433 10.5405 19.9106C10.7882 19.1779 10.9933 18.4111 11.1555 17.6188C11.3178 16.8264 11.4289 16.0171 11.4887 15.1821C11.5485 14.3472 11.5826 13.4867 11.5826 12.6007C11.5826 10.4537 11.4887 8.84346 11.3008 7.76998C11.1128 6.6965 10.8139 5.97232 10.4039 5.59746C9.99387 5.22259 9.45573 5.03516 8.77239 5.03516C8.06343 5.03516 7.47404 5.22259 7.02133 5.59746C6.56862 5.97232 6.22695 6.73058 6.00486 7.87222C5.78278 9.01386 5.67173 10.7348 5.67173 13.0266V19.0927H0V15.8722C0 12.4984 0.187919 9.6358 0.563757 7.28436C0.939594 4.93292 1.76815 3.14378 3.05795 1.91695C4.34776 0.690109 6.37216 0.0766907 9.13115 0.0766907C11.2495 0.0766907 12.8895 0.638991 14.0427 1.75507C15.1958 2.87115 16.0073 4.4047 16.46 6.36423C16.9127 8.31524 17.1433 10.5389 17.1433 13.0181C17.1433 14.5431 17.0408 15.9659 16.8358 17.295C16.6308 18.6156 16.3148 19.8765 15.8791 21.0778C15.4435 22.279 14.8883 23.4888 14.2135 24.7157L9.94262 32.3834C9.03719 34.0021 8.31114 35.3653 7.78155 36.4729C7.25196 37.5804 6.8505 38.6283 6.59424 39.6166C6.33799 40.6049 6.16715 41.7466 6.09882 43.0415H16.4002V47.4633H0.350212V47.4462Z" fill="#231F20"/>
<path d="M29.5887 47.9744C27.4874 47.9744 25.8217 47.574 24.6003 46.7646C23.3788 45.9553 22.499 44.8647 21.9694 43.4931C21.4484 42.1214 21.1836 40.5793 21.1836 38.8754V33.5761H26.787V38.7391C26.787 39.9659 26.9663 40.9883 27.3336 41.8147C27.7009 42.6411 28.4526 43.0501 29.5887 43.0501C30.6051 43.0501 31.3312 42.6667 31.7668 41.9084C32.2024 41.1416 32.4245 39.9915 32.4245 38.4494V24.8946C32.4245 23.1565 32.2366 21.819 31.8608 20.8733C31.4849 19.9361 30.7503 19.459 29.6485 19.459C28.7601 19.459 28.0426 19.8594 27.4959 20.6603C26.9493 21.4611 26.6845 22.6965 26.6845 24.3578L21.6107 23.9063V0.58786H36.9346V5.836H26.9749V16.4856C27.2995 15.8978 27.8547 15.4292 28.6405 15.0714C29.4349 14.7135 30.2805 14.5431 31.186 14.5431C32.8089 14.5431 34.1243 14.9947 35.1323 15.8978C36.1402 16.8009 36.8919 18.3514 37.3617 20.541C37.8315 22.7306 38.0706 25.7721 38.0706 29.6571V30.6709C38.0706 33.5506 37.9938 36.0639 37.84 38.2194C37.6863 40.3749 37.3446 42.181 36.815 43.6379C36.2854 45.0948 35.4483 46.1768 34.3037 46.901C33.1677 47.6166 31.5874 47.983 29.5801 47.983L29.5887 47.9744Z" fill="#231F20"/>
<path d="M51.652 48C49.6789 48 48.073 47.6848 46.8516 47.0543C45.6301 46.4239 44.682 45.5123 44.0328 44.311C43.3836 43.1097 42.9394 41.6613 42.7003 39.9489C42.4611 38.2364 42.3415 36.2854 42.3415 34.1044V14.5091C42.3415 11.1012 42.6149 8.3408 43.153 6.21939C43.6997 4.09798 44.6307 2.5474 45.9547 1.55911C47.2787 0.570828 49.1151 0.0852051 51.4641 0.0852051C53.4373 0.0852051 55.026 0.468592 56.2304 1.22685C57.4348 1.99362 58.3061 3.25453 58.8442 5.00959C59.3909 6.76465 59.6557 9.10757 59.6557 12.0383V14.2705H54.3683V12.967C54.3683 10.6752 54.2915 8.97125 54.1292 7.83813C53.9669 6.71353 53.6508 5.9638 53.1725 5.60597C52.6941 5.23962 51.9766 5.06071 51.037 5.06071C50.0974 5.06071 49.3543 5.36742 48.9272 5.98084C48.5001 6.59426 48.2353 7.5655 48.1414 8.89458C48.0474 10.2236 47.9962 11.9531 47.9962 14.0831V19.8083C48.4745 19.3653 49.1237 18.9904 49.9352 18.6922C50.7466 18.394 51.6179 18.2407 52.566 18.2407C54.7356 18.2236 56.3842 18.7434 57.5202 19.7998C58.6478 20.8562 59.4165 22.4239 59.818 24.5112C60.2194 26.5985 60.4159 29.2055 60.4159 32.3238V34.0788C60.4159 36.8988 60.2194 39.3525 59.8265 41.4398C59.4336 43.5272 58.6136 45.1374 57.3665 46.2875C56.1194 47.4292 54.2146 48.0085 51.652 48.0085V48ZM51.5495 42.9734C52.5489 42.9734 53.2921 42.7263 53.7875 42.2407C54.2829 41.7551 54.6075 40.9713 54.7613 39.8807C54.915 38.7987 54.9919 37.3504 54.9919 35.5442V31.8467C54.9919 29.6656 54.9235 27.9276 54.7783 26.6326C54.6331 25.3376 54.3256 24.409 53.8558 23.8381C53.386 23.2673 52.6514 22.9862 51.652 22.9862C51.0285 22.9862 50.4391 23.0884 49.8754 23.3099C49.3116 23.5314 48.8674 23.7529 48.5258 23.9915C48.1841 24.23 48.0133 24.3919 47.9962 24.4856V35.2119C47.9962 37.0437 48.0901 38.5261 48.2866 39.6592C48.4831 40.7923 48.8418 41.6358 49.3543 42.1725C49.8668 42.7178 50.6014 42.9819 51.541 42.9819L51.5495 42.9734Z" fill="#231F20"/>
<path d="M69.0175 47.4462V0.58786H74.86V42.573H83.6153V47.4462H69.0175Z" fill="#E9BF04"/>
<path d="M87.9118 47.4462V0.58786H93.7544V47.4462H87.9118Z" fill="#E87C35"/>
<path d="M107.84 47.8978C105.081 47.8978 102.945 46.7817 101.433 44.541C99.9216 42.3089 99.1613 38.6369 99.1613 33.5421V13.7338C99.1613 11.672 99.3236 9.80619 99.6397 8.12781C99.9557 6.44943 100.485 5.0096 101.228 3.7998C101.963 2.59 102.962 1.66988 104.218 1.0309C105.474 0.39192 107.054 0.0766907 108.959 0.0766907C110.864 0.0766907 112.521 0.408959 113.708 1.06498C114.904 1.72099 115.809 2.64964 116.433 3.85944C117.056 5.06924 117.475 6.51759 117.688 8.22153C117.902 9.92547 118.013 11.8168 118.013 13.8956V17.4398H112.41V11.6124C112.41 9.35465 112.179 7.71034 111.726 6.66242C111.274 5.6145 110.351 5.0948 108.967 5.0948C107.507 5.0948 106.49 5.71673 105.909 6.96061C105.329 8.20449 105.038 10.4026 105.038 13.5634V33.3717C105.038 36.8307 105.277 39.3099 105.756 40.8009C106.234 42.2918 107.25 43.033 108.796 43.033C110.343 43.033 111.316 42.2748 111.863 40.7668C112.418 39.2588 112.692 36.7455 112.692 33.2354V27.1097H108.899V22.6369H118.004V47.4462H115.04L114.212 43.6124C113.734 44.9926 112.931 46.0575 111.82 46.7902C110.71 47.5229 109.377 47.8978 107.831 47.8978H107.84Z" fill="#CE1B22"/>
<path d="M123.497 47.4462V0.58786H129.339V20.3962H136.626V0.58786H142.502V47.4462H136.626V25.2439H129.339V47.4462H123.497Z" fill="#662D91"/>
<path d="M150.497 47.4462V5.48669H145.27V0.58786H161.26V5.48669H156.348V47.4462H150.506H150.497Z" fill="#0088C3"/>
<path d="M171.792 47.9745C169.887 47.9745 168.324 47.6422 167.111 46.9777C165.89 46.3131 164.95 45.3589 164.284 44.115C163.618 42.8712 163.156 41.3972 162.9 39.6848C162.644 37.9723 162.516 36.0724 162.516 33.9766V29.5037H168.17V34.2407C168.17 37.3674 168.401 39.5996 168.862 40.9542C169.323 42.3003 170.314 42.9819 171.826 42.9819C172.86 42.9819 173.62 42.7434 174.107 42.2663C174.594 41.7892 174.918 41.0139 175.063 39.9404C175.217 38.8669 175.294 37.4611 175.294 35.7231C175.294 33.6954 174.927 31.9404 174.184 30.4409C173.441 28.9414 172.364 27.4846 170.938 26.0618L167.786 22.8925C166.88 21.9723 166.009 20.967 165.172 19.885C164.335 18.803 163.652 17.5762 163.114 16.213C162.584 14.8499 162.311 13.2908 162.311 11.5527C162.311 9.15869 162.567 7.10545 163.088 5.39299C163.6 3.68053 164.531 2.35997 165.881 1.4228C167.222 0.494157 169.118 0.0255737 171.553 0.0255737C173.458 0.0255737 174.995 0.349322 176.157 0.97978C177.319 1.61876 178.207 2.53889 178.796 3.73164C179.394 4.93292 179.796 6.35571 180.001 8.00853C180.206 9.66136 180.308 11.4931 180.308 13.5208V16.3152H174.756V13.1459C174.756 11.3397 174.679 9.83175 174.525 8.63047C174.372 7.4292 174.073 6.53463 173.62 5.92973C173.167 5.32483 172.475 5.02664 171.553 5.02664C170.682 5.02664 169.981 5.23111 169.443 5.64006C168.913 6.049 168.52 6.67946 168.281 7.53995C168.042 8.40044 167.923 9.508 167.923 10.8541C167.923 12.0469 168.068 13.0352 168.367 13.819C168.657 14.6113 169.101 15.344 169.691 16.0256C170.28 16.7071 171.006 17.4995 171.877 18.4111L175.217 21.9808C176.943 23.77 178.344 25.7551 179.411 27.9276C180.479 30.1001 181.017 32.5964 181.017 35.4249C181.017 38.066 180.752 40.3323 180.231 42.1981C179.702 44.0724 178.779 45.5037 177.455 46.5006C176.131 47.4974 174.243 47.9915 171.809 47.9915L171.792 47.9745Z" fill="#009D44"/>
</g>
<defs>
<clipPath id="clip0_2_22">
<rect width="181" height="48" fill="white"/>
</clipPath>
</defs>
</svg>
